<?xml version="1.0" encoding="UTF-8" standalone="no"?>
<!-- Created with Inkscape (http://www.inkscape.org/) -->

<svg
   width="100mm"
   height="100mm"
   viewBox="0 0 100 100"
   version="1.1"
   id="svg1"
   inkscape:version="1.4 (86a8ad7, 2024-10-11)"
   sodipodi:docname="snowflake.svg"
   xmlns:inkscape="http://www.inkscape.org/namespaces/inkscape"
   xmlns:sodipodi="http://sodipodi.sourceforge.net/DTD/sodipodi-0.dtd"
   xmlns="http://www.w3.org/2000/svg"
   xmlns:svg="http://www.w3.org/2000/svg">
  <sodipodi:namedview
     id="namedview1"
     pagecolor="#ffffff"
     bordercolor="#000000"
     borderopacity="0.25"
     inkscape:showpageshadow="2"
     inkscape:pageopacity="0.0"
     inkscape:pagecheckerboard="0"
     inkscape:deskcolor="#d1d1d1"
     inkscape:document-units="mm"
     inkscape:zoom="1.4520903"
     inkscape:cx="317.12903"
     inkscape:cy="237.24419"
     inkscape:window-width="1920"
     inkscape:window-height="1017"
     inkscape:window-x="-8"
     inkscape:window-y="-8"
     inkscape:window-maximized="1"
     inkscape:current-layer="layer1"
     showgrid="false" />
  <defs
     id="defs1" />
  <g
     inkscape:label="Layer 1"
     inkscape:groupmode="layer"
     id="layer1">
    <g
       id="g8"
       transform="translate(5.8306749,-3.8263804)">
      <path
         id="path1"
         style="fill:#7effff;fill-opacity:1;stroke-width:0.264583"
         d="M 38.334205,-12.463425 29.581405,16.964474 2.2888278e-4,8.7458487 21.108767,31.040313 -0.799502,52.54905 29.062542,45.415428 36.735449,75.14279 45.488696,45.71515 75.069872,53.933775 53.961074,31.639758 75.869603,10.130574 46.007559,17.264196 Z m 0.787272,18.7781966 3.502099,16.5001444 16.695725,-3.69513 -12.655219,11.709318 11.119312,12.502417 -16.157578,-4.790379 -5.576154,16.1971 -3.502359,-16.499698 -16.695725,3.69513 12.655478,-11.709765 -11.11957,-12.50197 16.157577,4.79038 z"
         transform="rotate(-30.111323,75.828371,21.301491)" />
      <path
         id="rect2"
         style="fill:#8affff;fill-opacity:1;stroke-width:0.255495"
         d="m 33.873077,11.445619 c -0.405219,0.01095 -0.806295,0.17703 -1.108431,0.495028 -0.604271,0.635997 -0.577333,1.633103 0.06039,2.235546 L 44.649305,25.34621 45.171426,44.672622 19.523636,26.34403 c -0.714042,-0.51027 -1.700927,-0.347726 -2.212771,0.364351 -0.511844,0.712077 -0.348987,1.696109 0.365055,2.206378 l 5.353442,3.825764 -12.734465,2.047338 c -0.4336821,0.06973 -0.7972823,0.306434 -1.0346862,0.634105 -0.2374036,0.327669 -0.3484688,0.746025 -0.278609,1.178455 0.1397204,0.86486 0.9506976,1.448695 1.8180612,1.309241 L 26.688382,35.355395 44.090386,47.791405 24.653793,59.690813 8.811972,55.91312 c -0.8544244,-0.203731 -1.7070969,0.31822 -1.9115474,1.170232 -0.1022251,0.426006 -0.022773,0.851772 0.1892897,1.196222 0.2120631,0.344451 0.5562787,0.607321 0.9834918,0.709186 l 12.7579929,3.042502 -4.438801,2.717496 c -0.748736,0.458401 -0.98174,1.428494 -0.522138,2.175016 0.459601,0.746522 1.432442,0.978708 2.181179,0.520307 l 4.739774,-2.901591 -2.99476,12.480092 c -0.102224,0.426004 -0.02279,0.851274 0.189276,1.195725 0.212064,0.344449 0.556793,0.607804 0.984005,0.709671 0.854424,0.203731 1.706598,-0.318208 1.911048,-1.170218 L 26.613808,62.202042 45.335346,50.740176 46.007567,75.622575 34.803646,87.414721 c -0.604271,0.635996 -0.577333,1.633102 0.06039,2.235545 0.318865,0.301222 0.728323,0.445405 1.133542,0.434458 0.405219,-0.01095 0.805796,-0.177015 1.107931,-0.495013 l 9.02283,-9.496542 0.140263,5.191865 c 0.02366,0.875709 0.750054,1.561911 1.62828,1.538185 0.878226,-0.02373 1.566012,-0.748133 1.542354,-1.623843 l -0.14975,-5.543037 9.341318,8.824455 c 0.318865,0.301221 0.72831,0.444906 1.133529,0.433959 0.40522,-0.01095 0.806309,-0.176531 1.108445,-0.494528 0.604271,-0.635996 0.577333,-1.633104 -0.06039,-2.235546 L 49.1687,75.185249 48.514028,50.952391 67.754196,64.701585 70.355973,80.808958 c 0.13972,0.864858 0.950697,1.448694 1.818062,1.309241 0.433682,-0.06973 0.797283,-0.306434 1.034685,-0.634105 0.237405,-0.32767 0.348469,-0.746025 0.278609,-1.178455 l -2.102141,-13.008863 3.001426,2.144627 c 0.714042,0.510268 1.700926,0.347725 2.212771,-0.364351 0.511844,-0.712077 0.348987,-1.696111 -0.365055,-2.206379 l -3.167103,-2.263275 12.611009,-2.028052 c 0.43368,-0.06973 0.796783,-0.30642 1.034186,-0.634091 0.237403,-0.32767 0.348967,-0.74604 0.279108,-1.178469 -0.13972,-0.864858 -0.950709,-1.449193 -1.818073,-1.309739 L 69.407695,61.992042 49.819878,47.994526 68.999257,36.252109 84.599059,39.972036 c 0.854425,0.203732 1.707098,-0.318221 1.911548,-1.170232 0.102223,-0.426006 0.02228,-0.851759 -0.189789,-1.196208 -0.212063,-0.344451 -0.556295,-0.60782 -0.983506,-0.709685 l -12.51546,-2.984251 4.696,-2.874985 c 0.748736,-0.458403 0.98174,-1.428495 0.522138,-2.175017 -0.459601,-0.746522 -1.432429,-0.97821 -2.181165,-0.519808 l -4.396013,2.691415 3.052702,-12.722422 c 0.102224,-0.426006 0.02329,-0.851289 -0.188777,-1.195738 -0.212063,-0.344451 -0.556791,-0.607805 -0.984004,-0.709672 -0.854426,-0.203731 -1.707098,0.318222 -1.911548,1.170232 L 67.640217,33.373714 48.358047,45.178726 47.82944,25.612222 58.862259,14.000166 c 0.60427,-0.635997 0.577332,-1.633104 -0.0604,-2.235547 -0.318865,-0.301221 -0.72831,-0.444907 -1.133529,-0.433959 -0.405219,0.01095 -0.806309,0.17653 -1.108445,0.494528 l -8.851239,9.315944 -0.148378,-5.492231 c -0.02366,-0.875708 -0.749554,-1.561925 -1.627779,-1.538199 -0.878226,0.02373 -1.566513,0.748148 -1.542855,1.623857 l 0.13889,5.141058 -9.522409,-8.995525 c -0.318864,-0.301222 -0.727823,-0.44542 -1.133042,-0.434473 z m -8.895519,4.401631 c -0.105455,-0.0044 -0.213005,0.0018 -0.321426,0.01915 -0.433682,0.06973 -0.796771,0.30692 -1.034174,0.634589 -0.237403,0.327671 -0.34898,0.745543 -0.279122,1.177972 l 2.046452,12.668409 3.635635,2.618994 -2.550731,-15.790723 C 26.351937,16.41889 25.715734,15.87744 24.977558,15.847249 Z" />
    </g>
  </g>
</svg>
